<svg width="1418" height="404" viewBox="0 0 1418 404" fill="none" xmlns="http://www.w3.org/2000/svg">
<path d="M14.5924 108C-52.9076 110 135.669 0 135.669 0C135.669 0 30.0153 84 112.092 51.5C194.169 19 217.169 21.5 222.169 36.5C227.169 51.5 104.831 138.5 163.5 195.5C222.169 252.5 290.092 168.5 411.592 51.5C533.093 -65.5 495.549 98.7377 613.092 73.5C730.636 48.2623 873.592 51.5 719.592 147C565.592 242.5 809.015 347 873.592 214.5C938.169 82 926.092 65.5 1055.67 43.5C1185.25 21.5 968 265 1156 192C1344 119 1266.17 18.5 1445.67 27C1625.17 35.5 1629.17 119 1629.17 119C1629.17 119 1482.67 466 1414.67 352C1346.67 238 1333.5 84 1156 247C978.5 410 988 351.633 1039.5 199C1091 46.3665 863.423 158 909 284C954.577 410 532.5 459 655 315.5C777.5 172 310.331 317.5 475.5 199C640.669 80.5 372.831 34 297.5 242.5C222.169 451 55 323 47.1694 273.5C39.3389 224 41 195.5 117.669 120C194.339 44.5 82.0924 106 14.5924 108Z" fill="#FFD2CE"/>
</svg>
